<svg xmlns="http://www.w3.org/2000/svg" width="24" height="24" viewBox="0 0 24 24">
  <g id="Group_72" data-name="Group 72" transform="translate(-626 -2392)">
    <g id="Rectangle_15" data-name="Rectangle 15" transform="translate(626 2392)" fill="#fff" stroke="#707070" stroke-width="1" opacity="0">
      <rect width="24" height="24" stroke="none"/>
      <rect x="0.5" y="0.5" width="23" height="23" fill="none"/>
    </g>
    <g id="copy" transform="translate(627 2393)">
      <g id="Group_35" data-name="Group 35" transform="translate(0)">
        <g id="Group_34" data-name="Group 34">
          <path id="Path_39" data-name="Path 39" d="M140.315,0h11.736a1.519,1.519,0,0,1,1.517,1.517v3.56h-6.9a2.9,2.9,0,0,0-2.9,2.9V14.77h-3.449a1.519,1.519,0,0,1-1.517-1.517V1.517A1.519,1.519,0,0,1,140.315,0Z" transform="translate(-138.798 0)" fill="#fff"/>
          <path id="Path_40" data-name="Path 40" d="M2.72,140H14.456a1.519,1.519,0,0,1,1.517,1.517v11.736a1.519,1.519,0,0,1-1.517,1.517H2.72A1.519,1.519,0,0,1,1.2,153.251V141.515A1.519,1.519,0,0,1,2.72,140Z" transform="translate(6.028 -132.768)" fill="#fff"/>
        </g>
      </g>
    </g>
  </g>
</svg>
