<svg xmlns="http://www.w3.org/2000/svg" width="100" height="100" viewBox="0 0 100 100">
  <g id="icon-letter" transform="translate(-1374 -315)">
    <rect id="Rectangle_12" data-name="Rectangle 12" width="100" height="100" transform="translate(1374 315)" fill="#dbdbdb" opacity="0"/>
    <g id="letter" transform="translate(1374 315)">
      <path id="Path_4" data-name="Path 4" d="M32.772,55.236c-1.705.1-3.069.129-4.417.288a2.326,2.326,0,0,1-2.707-1.591c-.521-1.447-.792-2.981-1.262-4.448a13.511,13.511,0,0,0-1.426-3.593,25.852,25.852,0,0,1-3.464-8.04c-.582-2.108-1.232-4.2-1.911-6.494-1.437.416-2.736.8-4.042,1.167-2.72.756-4.744.176-6.157-2.133a19.322,19.322,0,0,1-3.162-9.651c-.057-2.3.23-2.785,2.429-3.658a44.582,44.582,0,0,1,5.534-1.942C26.035,11.669,39.563,7.162,53.077,2.612,54.931,1.988,56.746,1.25,58.6.628A11.469,11.469,0,0,1,66.282.7a4.837,4.837,0,0,1,3.241,3.092C70.675,7.356,71.809,10.926,73,14.475c.5,1.492.376,2.52-1.133,3.491a18.682,18.682,0,0,0-3.125,3.255l.277.464c1.094-.12,2.2-.182,3.279-.375,1.729-.309,2.145-.212,2.905,1.4a25.954,25.954,0,0,1,1.072,3.237c.21.659.409,1.322.732,2.367.76-1.035,1.3-1.723,1.791-2.448,1.593-2.367,3.141-4.766,4.767-7.11a8.979,8.979,0,0,1,1.507-1.376c.457.517.922,1.028,1.366,1.556a6.807,6.807,0,0,1,.471.814,7.557,7.557,0,0,0,.219-1.114,11.511,11.511,0,0,1,4-8.859c2.754-2.423,5.523-4.832,8.363-7.151,1.328-1.084,2.141-.67,2.51,1.07a3.366,3.366,0,0,1,.118.968c-.462,5.183,0,10.425-1.157,15.57a20.505,20.505,0,0,1-5.393,10.235,4.172,4.172,0,0,0-.448.569c-.041.059-.024.159-.041.313h4.123c-1.614,3.132-3.045,5.861-5.773,7.488a24.635,24.635,0,0,0-6.73,5.95c-1.461,1.833-3.224,3.425-4.91,5.184l6.042,19.4c1.01-.283,2-.561,2.991-.837,4.509-1.252,7.571,1.062,7.633,5.719a5.475,5.475,0,0,0,.454,2.047,3.628,3.628,0,0,1-1.429,4.85,12.9,12.9,0,0,1-1.3.674c-9.979,4.657-20.079,9.028-30.437,12.779-4.442,1.608-8.882,3.232-13.384,4.657a11.792,11.792,0,0,1-4.781.446c-3.492-.4-5.62-2.666-6.968-5.8a46.231,46.231,0,0,1-3.488-12.943,27.428,27.428,0,0,0-3.948-11.695A76.124,76.124,0,0,1,29,61.258a2.471,2.471,0,0,1,.307-1.97A17.459,17.459,0,0,1,31.256,57.1c.467-.53.894-1.095,1.516-1.863ZM21.863,27.028c.223,3.162-2.452,6-.225,9.4L24,31.308l.51.222c-.631,1.74-1.2,3.507-1.911,5.211a4.48,4.48,0,0,0,.74,4.686l1.6-3.823.461.179c-.34,1.152-.6,2.337-1.041,3.449a2.377,2.377,0,0,0,1.2,3.33l2.192-4.974c.515,3.231-2.7,5.628-.695,8.637l1.82-4.085c.1,3.2-2.77,5.989-.851,9.458,1.617-.079,3.155-.162,4.695-.227.909-.038,2.031-.091,2.3.891a2.981,2.981,0,0,1-.8,2.1c-1.1,1.4-2.348,2.684-3.614,4.1l2.51,4.294,1.641-3.651a10.159,10.159,0,0,1-.686,3.8,2.076,2.076,0,0,0,.883,2.682l1.676-4.139a9.8,9.8,0,0,1-.615,3.631,3.563,3.563,0,0,0,1.255,4.3l.947-2.227c-.8,3.049.245,5.851.857,8.7.2.952.28,1.932.41,2.9A52.11,52.11,0,0,0,42.9,93.715,6.611,6.611,0,0,0,47.432,97.8a2.894,2.894,0,0,0,3.633-1.567,23.523,23.523,0,0,0,.842-2.82c-.738.038-1.131.046-1.522.081-2.094.186-2.867-.155-3.6-2.048-1.8-4.676-.755-6.442,2.944-8.453a13.445,13.445,0,0,1,1.787-.8c3.288-1.206,6.564-2.451,9.88-3.575,6.093-2.065,12.218-4.038,18.316-6.089,1.83-.616,3.617-1.362,5.6-2.115L79.7,50.961a8.864,8.864,0,0,1-6.967-.093,12.87,12.87,0,0,0-1.659,1.814c-1.353,2.2-2.691,4.417-3.882,6.707-.611,1.175-1.206,2.031-2.678,2.114-.534.03-1.07.621-1.54,1.031a20.316,20.316,0,0,1-1.761,1.681c-.3.206-.9-.017-1.668-.064L70.018,50.138a13.462,13.462,0,0,1-1.276-7.627A21.971,21.971,0,0,1,73.7,32.3c.646-.814,1.323-1.6,1.95-2.361-1.861-2.022-1.443-4.666-2.682-6.878l-6.781.5c.866-1.424,1.513-2.522,2.194-3.6,1.536-2.431,2.389-4.962,1.31-7.835-.743-1.979-1.523-3.949-2.14-5.969-.943-3.084-1.63-3.7-4.836-3.649a10.848,10.848,0,0,0-3.119.451c-3.178,1.027-6.3,2.23-9.478,3.256-12.391,4-24.661,8.429-37.534,10.75-.1.018-.166.242-.2.3,1.5,1.489,3.293,2.769,4.381,4.494,1.1,1.749,1.51,3.939,2.294,6.138l1.238-2.56c.3,2.283-1.938,4.177-.115,6.409l1.687-4.722ZM100.224,4.036c-3.608,2.932-6.975,5.395-9.49,8.728A11.428,11.428,0,0,0,89.047,17c-.614,2.611-.955,5.285-1.49,7.917a13.275,13.275,0,0,1-.962,2.761c-.133.3-.707.677-.908.6-.379-.154-.868-.6-.9-.951a26.219,26.219,0,0,1,.073-3.169c.045-1.088.1-2.176.15-3.323-.444.1-.671.077-.727.166A153.108,153.108,0,0,1,73.821,35.131a15.486,15.486,0,0,0-3.334,12.4,8.416,8.416,0,0,0,.529,1.5C83.048,39.557,90.839,27.189,97.4,13.853a33.459,33.459,0,0,1-3.728,9.867c-1.636,3.095-3.26,6.218-5.189,9.13a88.837,88.837,0,0,1-6.512,8.527c-2.3,2.7-4.86,5.181-7.446,7.906a4.353,4.353,0,0,0,4.591-.6,67.421,67.421,0,0,0,6.206-5.472,27.949,27.949,0,0,1,6.393-5.26,12.88,12.88,0,0,0,4.806-5.03c-1.895-.377-3.6.854-5.7-.041a32.664,32.664,0,0,1,2.234-2.428,18.894,18.894,0,0,0,6.312-11.56c.379-2.409.685-4.84.831-7.273.14-2.338.03-4.691.03-7.586ZM68.679,90.8c1.387-.007,2.315-.308,2.834-1.7.635-1.708,1.494-3.334,2.257-4.995l.4.165L72.4,89.288c2.072-.227,3.267-.968,3.677-2.881a17.239,17.239,0,0,1,1.3-3.084l.419.132-.969,4.025c2.139.024,2.262-1.615,2.916-2.761.05-.087.222-.1.5-.224l-.272,1.855c.767-.3,1.537-.365,1.885-.782.946-1.133,1.714-2.415,2.806-4.008l-.184,2.827c3.676-1.7,7.221-3.31,10.737-4.983.467-.222,1.081-.724,1.125-1.148.215-2.1.474-4.241-.485-6.251-.945-1.982-1.805-2.32-3.93-1.487A405.974,405.974,0,0,1,52.733,83.443c-.89.248-1.737.653-2.9,1.1,4.527,3.639,4.892,7.969,2.962,12.74,2.215.12,3.129-.846,3.5-2.745a6.776,6.776,0,0,1,1.8-3.952l-1.115,5.27c1.694-.208,2.624-.828,2.85-2.39a10.323,10.323,0,0,1,.8-2.3,4.553,4.553,0,0,1,1.4-2.5L60.713,94.1c1.834-.258,3.031-.79,3.416-2.681A36.381,36.381,0,0,1,65.75,86.7l.471.132L64.944,92.4a2.719,2.719,0,0,0,2.909-2.3,39.41,39.41,0,0,1,1.673-3.992l.509.182L68.679,90.8ZM5.792,19.37a5.333,5.333,0,0,0-.1,1.126A27.329,27.329,0,0,0,9,29.631a2.54,2.54,0,0,0,1,1.041c.628.3,1.473.715,1.994.5.42-.169.619-1.177.692-1.837a10.208,10.208,0,0,0-.186-2.116c-2.877.094-3.38-.215-4.356-2.572a6.557,6.557,0,0,1-.275-.679,3.209,3.209,0,0,1,1.741-4.005c.594-.318,1.173-.665,2.034-1.156C9.376,17.873,7.667,18.586,5.792,19.37ZM17.177,29.619c-.943-3.445-.669-7.094-3.877-9.483l-2.03.993a24.643,24.643,0,0,1,3.4,9.472l2.5-.983Zm32.815,57.7a5.393,5.393,0,0,0-.683-.854,3.548,3.548,0,0,0-.787-.374c-1.461,1.953-1.379,3.489.581,5.99a7.387,7.387,0,0,0-.043-2.419A1.535,1.535,0,0,1,49.992,87.315ZM11.519,25.448C11.4,23.28,11.4,23.28,9.868,22.3,9.24,24.136,9.9,25.393,11.519,25.448Zm39.6,63.337-.694.147.619,2.73A1.906,1.906,0,0,0,51.114,88.784Z" transform="translate(-4.218 -0.002)" fill="#292929"/>
      <path id="Path_5" data-name="Path 5" d="M196.158,300.941c-.017-2.289,1.263-3.279,3.033-3.811,1.511-.455,2.469.075,2.589,1.6a18.127,18.127,0,0,1-1.593,8.3,1.89,1.89,0,0,1-2.448,1.1c-2.532-.842-5.009-1.853-7.491-2.839a2.732,2.732,0,0,1-.922-.782c-1.253-1.42-.919-3.131.9-3.613a19.342,19.342,0,0,1,4.323-.276A9.1,9.1,0,0,1,196.158,300.941Z" transform="translate(-147.767 -231.235)" fill="#c1272d"/>
      <path id="Path_6" data-name="Path 6" d="M129.342,152q13.734-4.962,27.476-9.9a11.17,11.17,0,0,1,2.325-.326,2.127,2.127,0,0,1,.129.361c.005.077.009.2-.033.228a9.841,9.841,0,0,1-1.475.825C148.492,146.682,139.277,150.355,129.342,152Z" transform="translate(-101.645 -110.393)" fill="#292929"/>
      <path id="Path_7" data-name="Path 7" d="M145.579,98.389c-5.172,1.617-10.272,3.548-15.537,4.757-4.813,1.105-9.231,3.63-14.593,4.067,2.873-2.127,27.371-9.636,29.97-9.328Z" transform="translate(-90.827 -76.21)" fill="#292929"/>
      <path id="Path_8" data-name="Path 8" d="M126.884,129.316a13.6,13.6,0,0,1,1.692-.591c9.424-1.992,18.277-6.23,27.914-7.383l.2.479a6.387,6.387,0,0,1-1.263.693c-7.265,2.069-14.525,4.158-21.816,6.133-2.148.582-4.388.824-6.586,1.221l-.135-.553Z" transform="translate(-99.731 -94.482)" fill="#292929"/>
      <path id="Path_9" data-name="Path 9" d="M147.048,175c8.745-3.627,17.369-7.591,27.066-9.8-1.548,1.439-24.719,9.787-27.066,9.8Z" transform="translate(-115.431 -128.634)" fill="#292929"/>
      <path id="Path_10" data-name="Path 10" d="M182.759,196.54a5.875,5.875,0,0,1-1.16.691c-7.094,2.26-14.2,4.5-21.341,6.605a83.9,83.9,0,0,1,22.251-7.82Z" transform="translate(-125.716 -152.627)" fill="#292929"/>
      <path id="Path_11" data-name="Path 11" d="M186.643,230.456c-6.57,1.616-12.914,3.969-19.564,5.138C169.416,233.546,183.427,229.763,186.643,230.456Z" transform="translate(-131.028 -179.378)" fill="#292929"/>
      <path id="Path_12" data-name="Path 12" d="M167.109,264.487c4.956-1.955,9.783-4.329,15.425-4.728C181.081,261.2,169.565,264.781,167.109,264.487Z" transform="translate(-131.052 -202.26)" fill="#292929"/>
    </g>
  </g>
</svg>
