<svg xmlns="http://www.w3.org/2000/svg" width="117" height="100" viewBox="0 0 117 100">
  <g id="icon-send" transform="translate(-610 -2444)">
    <rect id="Rectangle_20" data-name="Rectangle 20" width="117" height="100" transform="translate(610 2444)" opacity="0"/>
    <g id="paper-plane" transform="translate(610 2421.822)">
      <g id="Group_26" data-name="Group 26" transform="translate(2 22.178)">
        <g id="Group_25" data-name="Group 25" transform="translate(0 0)">
          <path id="Path_20" data-name="Path 20" d="M175.349,22.465A1.116,1.116,0,0,0,174.1,22.3L91.477,64.309a1.117,1.117,0,0,0-.1,1.933l20.929,13.505L114.9,98.781a1.114,1.114,0,0,0,.585.836,1.1,1.1,0,0,0,.521.129,1.122,1.122,0,0,0,.5-.12l16.8-8.441,12.791,6.232a1.1,1.1,0,0,0,.9.035,1.112,1.112,0,0,0,.632-.638s28.162-72.541,27.949-72.936l.072-.185A1.117,1.117,0,0,0,175.349,22.465ZM94.219,65.42,170.2,26.787l-57.52,50.542Zm62.909-24.177,6.662-5.853-6.57,7.721a7.088,7.088,0,0,1-.072-1.7A.782.782,0,0,0,157.127,41.243Zm-1.144,3.32-4.534,5.328-.359-2.977a.808.808,0,0,0-.094-.285l4.585-4.027A8.133,8.133,0,0,0,155.984,44.563Zm-5.914,6.95-3.623,4.26q-.266-2.26-.53-4.522a.712.712,0,0,0-.04-.122l3.751-3.3Q149.847,49.672,150.069,51.512ZM145.061,57.4l-4.042,4.753q-.344-2.788-.686-5.575a.8.8,0,0,0-.186-.415l4.324-3.8Q144.766,54.88,145.061,57.4Zm-5.418,6.37-3.995,4.694q-.379-3.782-.757-7.563a.675.675,0,0,0-.029-.1l3.984-3.5Q139.246,60.536,139.643,63.769Zm-5.4,6.349-2.9,3.4q-.653-4.241-1.3-8.48l3.393-2.983Q133.837,66.09,134.239,70.118ZM130,75.1l-3.578,4.2q-.49-5.109-.982-10.22l3.2-2.815Q129.324,70.682,130,75.1Zm-4.992,5.869L123.025,83.3c-.025.029-.042.065-.064.1-.009.013-.023.02-.031.033s-.007.023-.013.035a.653.653,0,0,0-.042.063l-1.48,2.984c-.353-4.332-.666-8.667-.914-13.006,0-.02-.012-.033-.013-.051l3.523-3.1ZM114.45,78.937a1.187,1.187,0,0,0-.053-.148l4.591-4.035q.434,7.256,1.051,14.5l-3.285,6.627Zm4.876,16.773,5-10.086,6.7,4.208Zm26.649-.831-12.141-5.916-8.272-5.2L170.457,31Z" transform="translate(-61.28 -22.178)" fill="#292929"/>
          <g id="Group_30" data-name="Group 30">
            <path id="Path_21" data-name="Path 21" d="M1.933,215.193a1.166,1.166,0,0,0,.164.013,1.118,1.118,0,0,0,1.1-.955q.156-1.065.391-2.109a1.116,1.116,0,1,0-2.179-.486q-.252,1.123-.421,2.269A1.116,1.116,0,0,0,1.933,215.193Z" transform="translate(-0.66 -149.37)" fill="#292929"/>
            <path id="Path_22" data-name="Path 22" d="M1.551,236.43a1.117,1.117,0,0,0,.951-1.259,28.358,28.358,0,0,1-.27-3.907V230.9a1.116,1.116,0,0,0-1.1-1.13H1.119A1.116,1.116,0,0,0,0,230.875l0,.388a30.388,30.388,0,0,0,.292,4.215,1.115,1.115,0,0,0,1.1.963A1.262,1.262,0,0,0,1.551,236.43Z" transform="translate(0 -162.177)" fill="#292929"/>
            <path id="Path_23" data-name="Path 23" d="M148.287,287.785a1.117,1.117,0,0,0-1.441.645,22.834,22.834,0,0,1-1.857,3.8,1.116,1.116,0,1,0,1.9,1.171,25.081,25.081,0,0,0,2.042-4.177A1.117,1.117,0,0,0,148.287,287.785Z" transform="translate(-97.667 -201.251)" fill="#292929"/>
            <path id="Path_24" data-name="Path 24" d="M7.149,260.177a24.6,24.6,0,0,1-1.534-3.959,1.115,1.115,0,1,0-2.141.624,26.563,26.563,0,0,0,1.675,4.323,1.117,1.117,0,0,0,1,.623,1.117,1.117,0,0,0,1-1.61Z" transform="translate(-2.312 -179.47)" fill="#292929"/>
            <path id="Path_25" data-name="Path 25" d="M65.629,292.055c-.078-.18-.154-.361-.223-.546a1.116,1.116,0,0,0-.56-1.977,13,13,0,0,1-.2-1.418,1.116,1.116,0,0,0-2.225.184,15.148,15.148,0,0,0,.3,2.021,12.5,12.5,0,0,1-2.4.663,1.116,1.116,0,1,0,.376,2.2,14.817,14.817,0,0,0,2.671-.722c.065.164.132.327.2.488a1.119,1.119,0,0,0,1.024.669,1.1,1.1,0,0,0,.445-.094A1.116,1.116,0,0,0,65.629,292.055Z" transform="translate(-40.061 -200.829)" fill="#292929"/>
            <path id="Path_26" data-name="Path 26" d="M39.629,296.677a12.833,12.833,0,0,1-3.906-1.154,1.116,1.116,0,1,0-.959,2.015,15.056,15.056,0,0,0,4.586,1.353,1.06,1.06,0,0,0,.142.009,1.116,1.116,0,0,0,.137-2.223Z" transform="translate(-23.015 -206.445)" fill="#292929"/>
            <path id="Path_27" data-name="Path 27" d="M130.355,310.032a12.983,12.983,0,0,1-3.246,2.464,1.117,1.117,0,0,0,1.043,1.976,15.288,15.288,0,0,0,3.8-2.882,1.117,1.117,0,0,0-1.6-1.558Z" transform="translate(-85.32 -216.076)" fill="#292929"/>
            <path id="Path_28" data-name="Path 28" d="M17.815,280.5q-.586-.678-1.107-1.395a1.116,1.116,0,1,0-1.8,1.314q.576.791,1.222,1.539a17.91,17.91,0,0,0,1.942,1.934,1.105,1.105,0,0,0,.723.267,1.116,1.116,0,0,0,.724-1.965A16.176,16.176,0,0,1,17.815,280.5Z" transform="translate(-9.906 -195.134)" fill="#292929"/>
            <path id="Path_29" data-name="Path 29" d="M86.685,276.98a1.116,1.116,0,0,0-1.536.366c-.2.327-.389.61-.547.831a16.022,16.022,0,0,1-2.064,2.386,1.117,1.117,0,1,0,1.532,1.625,18.507,18.507,0,0,0,2.355-2.718c.181-.255.395-.577.626-.955A1.116,1.116,0,0,0,86.685,276.98Z" transform="translate(-55.426 -193.901)" fill="#292929"/>
            <path id="Path_30" data-name="Path 30" d="M98.526,258.465a11.683,11.683,0,0,0,.987-4.251c0-.2-.009-.405-.029-.6a1.128,1.128,0,0,0-1.223-1,1.117,1.117,0,0,0-1,1.223,3.571,3.571,0,0,1,.018.378,9.688,9.688,0,0,1-.824,3.415,1.115,1.115,0,1,0,2.068.836Z" transform="translate(-64.995 -177.578)" fill="#292929"/>
            <path id="Path_31" data-name="Path 31" d="M83.78,313.251a10.33,10.33,0,0,1-3.222-2.352,1.117,1.117,0,1,0-1.64,1.516,12.52,12.52,0,0,0,3.915,2.856,1.091,1.091,0,0,0,.473.107,1.116,1.116,0,0,0,.474-2.127Z" transform="translate(-53.021 -216.646)" fill="#292929"/>
            <path id="Path_32" data-name="Path 32" d="M70.22,268.351a1.09,1.09,0,0,0,.2.018,1.117,1.117,0,0,0,1.1-.913A14.855,14.855,0,0,1,72,265.567a17.064,17.064,0,0,1,.843-2.037,1.116,1.116,0,1,0-2.008-.973,19.778,19.778,0,0,0-.957,2.318,17.124,17.124,0,0,0-.552,2.173A1.117,1.117,0,0,0,70.22,268.351Z" transform="translate(-46.739 -183.86)" fill="#292929"/>
            <path id="Path_33" data-name="Path 33" d="M80.487,248.775a1.116,1.116,0,0,0,1.568-.176c.949-1.187,1.885-1.839,2.634-1.839l.141-1.112-.073,1.115a1.131,1.131,0,0,0,1.187-1.042,1.117,1.117,0,0,0-1.041-1.187l-.214-.007c-1.482,0-2.954.9-4.376,2.678A1.116,1.116,0,0,0,80.487,248.775Z" transform="translate(-53.997 -172.128)" fill="#292929"/>
            <path id="Path_34" data-name="Path 34" d="M106.693,321.855a13.341,13.341,0,0,1-4.083.029,1.117,1.117,0,0,0-.313,2.213,16.517,16.517,0,0,0,2.3.164,14.6,14.6,0,0,0,2.466-.206,1.116,1.116,0,1,0-.374-2.2Z" transform="translate(-68.341 -224.265)" fill="#292929"/>
            <path id="Path_35" data-name="Path 35" d="M156.1,268.954a1.126,1.126,0,0,0-1.269.942c-.1.7-.236,1.411-.393,2.113a1.117,1.117,0,0,0,.844,1.334,1.13,1.13,0,0,0,.245.027,1.119,1.119,0,0,0,1.089-.871c.169-.755.311-1.517.423-2.277A1.114,1.114,0,0,0,156.1,268.954Z" transform="translate(-104.133 -188.593)" fill="#292929"/>
          </g>
          <path id="Path_36" data-name="Path 36" d="M256.648,207.865q1.266-3.036,2.533-6.075c.391-.935-1.133-1.342-1.519-.418q-1.266,3.036-2.533,6.075C254.74,208.381,256.264,208.789,256.648,207.865Z" transform="translate(-172.013 -142.673)" fill="#292929"/>
          <path id="Path_37" data-name="Path 37" d="M269.62,164.195l5.068-12.148c.391-.935-1.133-1.342-1.519-.418L268.1,163.776C267.712,164.71,269.234,165.118,269.62,164.195Z" transform="translate(-180.761 -109.126)" fill="#292929"/>
        </g>
      </g>
    </g>
    <path id="Path_38" data-name="Path 38" d="M196.158,300.941c-.017-2.289,1.263-3.279,3.033-3.811,1.511-.455,2.469.075,2.589,1.6a18.127,18.127,0,0,1-1.593,8.3,1.89,1.89,0,0,1-2.448,1.1c-2.532-.842-5.009-1.853-7.491-2.839a2.732,2.732,0,0,1-.922-.782c-1.253-1.42-.919-3.131.9-3.613a19.342,19.342,0,0,1,4.323-.276A9.1,9.1,0,0,1,196.158,300.941Z" transform="translate(421.424 2192.028)" fill="#c1272d"/>
  </g>
</svg>
