<svg xmlns="http://www.w3.org/2000/svg" width="88" height="36" viewBox="0 0 88 36">
  <g id="logo" transform="translate(-197 -400)">
    <path id="Path_67" data-name="Path 67" d="M219.741,400.008l-.008-.007h-6.955a9.122,9.122,0,0,0-9.111,9.111c0,.084,0,.165.006.241a6.888,6.888,0,1,0,11.438-5.407,3.057,3.057,0,0,1,1-.168,3.114,3.114,0,0,1,3.111,3.111v14.564a14.648,14.648,0,0,0-2.437-.206h-.025a14.634,14.634,0,0,0-7.533,2.089,2.049,2.049,0,0,1-.947.242,2.019,2.019,0,0,1-1.971-1.67,1,1,0,0,0-.04-.2,4.662,4.662,0,0,0-9.226,1.345.881.881,0,0,0,.012.124,11.383,11.383,0,0,0,10.683,9.488,11.2,11.2,0,0,0,7.016-2.052,3.026,3.026,0,0,1,1.6-.445,3.154,3.154,0,0,1,3,2.289.677.677,0,0,0,.028.081,4.664,4.664,0,0,0,9.171-1.206V409.111A9.164,9.164,0,0,0,219.741,400.008Z" transform="translate(0 0)" fill="#292929"/>
    <path id="Path_68" data-name="Path 68" d="M379.444,400c-.11,0-.217.008-.325.016h0a1.816,1.816,0,0,0-.23-.016H362.222a1.889,1.889,0,1,0,0,3.778h10.63l-13.072,9.8a6.887,6.887,0,0,0,.121,11.144,2.587,2.587,0,0,0,.264.186L377,435.315a2.193,2.193,0,0,0,.357.186,4.619,4.619,0,0,0,2.092.5,4.672,4.672,0,0,0,4.667-4.667V404.667A4.672,4.672,0,0,0,379.444,400Zm-4.667,14v8.968l-6.555-4.052Z" transform="translate(-124 0)" fill="#292929"/>
    <g id="Group_68" data-name="Group 68" transform="translate(264.555 402.222)">
      <circle id="Ellipse_4" data-name="Ellipse 4" cx="6.889" cy="6.889" r="6.889" transform="translate(3.333)" fill="#292929"/>
      <path id="Path_69" data-name="Path 69" d="M514.1,480.424a37.636,37.636,0,0,0-12.576-5.288,3.553,3.553,0,0,0-3.11,6.253l-.019.021.222.138A37.814,37.814,0,0,1,510.158,492.8c.046.07.081.124.132.2l.072.111.056.112h.137a6.889,6.889,0,0,0,3.541-12.8Z" transform="translate(-497 -459.444)" fill="#292929"/>
    </g>
  </g>
</svg>
